<?xml version="1.0" encoding="utf-8"?>
<!-- Generator: Adobe Illustrator 19.0.1, SVG Export Plug-In . SVG Version: 6.00 Build 0)  -->
<svg version="1.1" id="Layer_1" xmlns="http://www.w3.org/2000/svg" xmlns:xlink="http://www.w3.org/1999/xlink" x="0px" y="0px"
	 viewBox="0 0 16 16" style="enable-background:new 0 0 16 16;" xml:space="preserve">
<style type="text/css">
	.st0{fill:#C3C3C2;}
	.st1{fill:#676868;}
</style>
<g>
	<g>
		<g>
			<path class="st0" d="M6.9,9.2C6,8.9,5.3,8,5.3,7c0-1,0.7-1.9,1.7-2.2c0.1,0,0.1-0.1,0-0.1c-1.3,0-2.3,1-2.3,2.3
				c0,1.3,1,2.3,2.3,2.3C7,9.3,7,9.2,6.9,9.2z"/>
			<path class="st0" d="M5.7,7.5c0-0.1,0-0.1,0-0.2c0-1,0.8-1.8,1.8-1.8c0.9,0,1.2,0.4,1.3,0.4c0,0-0.3-0.9-1.5-0.9
				c-1,0-1.8,0.8-1.8,1.8C5.5,7.1,5.6,7.3,5.7,7.5C5.7,7.6,5.7,7.6,5.7,7.5z"/>
			<path class="st0" d="M6.5,6.2C6.9,6,7.5,6,8.1,6.2c0.4,0.1,0.6,0.3,0.6,0.3c0,0-0.2-0.4-0.7-0.6C7.5,5.7,6.9,5.8,6.5,6.2
				C6.4,6.2,6.4,6.2,6.5,6.2z"/>
		</g>
	</g>
	<g>
		<circle class="st0" cx="15.6" cy="7.1" r="0.2"/>
		<g>
			<path class="st0" d="M8,8H7.5l0.4-0.8h0L8,8L8,8z M8,8.4l0,0.3h0.5L8.4,6.9H7.6L6.7,8.7h0.5l0.2-0.3H8L8,8.4z"/>
			<polygon class="st0" points="9.3,7.9 9.3,7.9 9.7,7.4 10.2,7.4 9.7,8 10,8.7 9.5,8.7 9.3,8.2 9.2,8.2 9.1,8.7 8.7,8.7 9,6.9 
				9.5,6.9 9.3,7.9 			"/>
			<path class="st0" d="M10.7,8.2c0.1,0,0.2,0,0.2,0.1c0,0.1-0.1,0.2-0.3,0.2c-0.1,0-0.2,0-0.2-0.1C10.5,8.2,10.6,8.2,10.7,8.2
				L10.7,8.2z M10.8,8.7h0.4l0.2-0.8c0.1-0.4-0.1-0.5-0.5-0.5c-0.3,0-0.6,0-0.7,0.4h0.4c0-0.1,0.1-0.1,0.2-0.1C11,7.7,11,7.7,11,7.9
				l0,0.2h0c0-0.1-0.2-0.1-0.3-0.1c-0.3,0-0.5,0.1-0.6,0.4c-0.1,0.3,0.1,0.4,0.4,0.4c0.1,0,0.3,0,0.4-0.2h0L10.8,8.7L10.8,8.7z"/>
			<path class="st0" d="M12.1,7.4l0,0.2h0c0.1-0.2,0.3-0.2,0.4-0.2c0.2,0,0.4,0,0.3,0.3h0c0.1-0.2,0.3-0.3,0.4-0.3
				c0.3,0,0.4,0.1,0.4,0.4l-0.2,0.9H13L13.2,8c0-0.1,0-0.2-0.1-0.2c-0.2,0-0.2,0.1-0.2,0.2l-0.2,0.7h-0.4l0.2-0.8
				c0-0.1,0-0.2-0.1-0.2C12.1,7.7,12,7.8,12,8l-0.2,0.7h-0.4l0.3-1.3H12.1L12.1,7.4z"/>
			<path class="st0" d="M14.3,8.2c0.1,0,0.2,0,0.2,0.1c0,0.1-0.1,0.2-0.3,0.2c-0.1,0-0.2,0-0.2-0.1C14.1,8.2,14.2,8.2,14.3,8.2
				L14.3,8.2z M14.4,8.7h0.4L15,7.9c0.1-0.4-0.1-0.5-0.5-0.5c-0.3,0-0.6,0-0.7,0.4h0.4c0-0.1,0.1-0.1,0.2-0.1c0.2,0,0.2,0.1,0.2,0.2
				l0,0.2h0c0-0.1-0.2-0.1-0.3-0.1c-0.3,0-0.5,0.1-0.6,0.4c-0.1,0.3,0.1,0.4,0.4,0.4c0.1,0,0.3,0,0.4-0.2h0L14.4,8.7L14.4,8.7z"/>
			<path class="st0" d="M15.4,8.7H15l0.3-1.3h0.4L15.4,8.7L15.4,8.7z"/>
		</g>
	</g>
</g>
<path class="st1" d="M2.6,5.2C1.6,5,0.7,5.6,0.5,6.6s0.4,1.9,1.4,2.1S3.8,8.3,4,7.3S3.6,5.4,2.6,5.2z M3.6,7.3
	C3.6,7.6,3.4,7.9,3.2,8.1L1.6,5.7c0.3-0.1,0.6-0.2,0.9-0.1C3.3,5.7,3.8,6.5,3.6,7.3z M0.8,6.7c0.1-0.3,0.2-0.6,0.5-0.8l1.6,2.4
	C2.6,8.4,2.3,8.5,1.9,8.4C1.2,8.2,0.7,7.4,0.8,6.7z"/>
</svg>
