<?xml version="1.0" encoding="utf-8"?>
<!-- Generator: Adobe Illustrator 19.0.1, SVG Export Plug-In . SVG Version: 6.00 Build 0)  -->
<svg version="1.1" id="Layer_1" xmlns="http://www.w3.org/2000/svg" xmlns:xlink="http://www.w3.org/1999/xlink" x="0px" y="0px"
	 viewBox="0 0 16 16" style="enable-background:new 0 0 16 16;" xml:space="preserve">
<style type="text/css">
	.st0{fill:#009BDE;}
	.st1{fill:#F38B00;}
</style>
<g>
	<g>
		<g>
			<path class="st0" d="M3.4,10.1C2.1,9.7,1.1,8.5,1.1,7.1c0-1.5,1-2.7,2.3-3.1c0.1,0,0.1-0.1-0.1-0.1c-1.8,0-3.2,1.4-3.2,3.2
				c0,1.8,1.4,3.2,3.2,3.2C3.5,10.2,3.6,10.2,3.4,10.1z"/>
			<path class="st0" d="M1.7,7.8c0-0.1,0-0.2,0-0.3C1.7,6.1,2.9,5,4.3,5C5.6,5,6,5.6,6,5.6c0.1,0-0.5-1.2-2-1.2
				c-1.4,0-2.5,1.1-2.5,2.5c0,0.3,0.1,0.6,0.2,0.9C1.7,7.9,1.8,7.9,1.7,7.8z"/>
			<path class="st0" d="M2.8,6c0.7-0.3,1.5-0.3,2.3,0C5.7,6.2,6,6.4,6,6.4c0,0-0.3-0.6-1-0.8C4.2,5.3,3.4,5.4,2.8,6
				C2.7,6,2.7,6,2.8,6z"/>
		</g>
	</g>
	<g>
		<circle class="st1" cx="15.5" cy="7.2" r="0.3"/>
		<g>
			<path class="st1" d="M4.9,8.5H4.3l0.6-1.1h0L4.9,8.5L4.9,8.5z M5,9l0,0.4h0.7L5.5,6.9h-1L3.1,9.5h0.7L4,9H5L5,9z"/>
			<polygon class="st1" points="6.7,8.4 6.8,8.4 7.3,7.7 8,7.7 7.3,8.5 7.7,9.5 7,9.5 6.7,8.7 6.6,8.7 6.5,9.5 5.9,9.5 6.4,6.9 
				7,6.9 6.7,8.4 			"/>
			<path class="st1" d="M8.7,8.7c0.2,0,0.3,0,0.3,0.2c0,0.2-0.1,0.2-0.4,0.2c-0.1,0-0.3,0-0.2-0.2C8.4,8.8,8.6,8.7,8.7,8.7L8.7,8.7z
				 M8.9,9.5h0.6l0.2-1.1C9.8,7.7,9.6,7.7,9,7.7c-0.4,0-0.8,0-1,0.6h0.6C8.7,8,8.8,8,8.9,8c0.3,0,0.2,0.1,0.2,0.3L9.1,8.6h0
				c0-0.2-0.3-0.2-0.4-0.2c-0.4,0-0.7,0.1-0.8,0.6C7.7,9.4,7.9,9.5,8.3,9.5c0.2,0,0.5,0,0.6-0.3h0L8.9,9.5L8.9,9.5z"/>
			<path class="st1" d="M10.7,7.7l-0.1,0.3h0c0.1-0.2,0.4-0.3,0.6-0.3c0.3,0,0.5,0,0.5,0.4h0c0.1-0.3,0.4-0.4,0.6-0.4
				c0.4,0,0.6,0.2,0.5,0.6l-0.3,1.2h-0.6l0.2-1c0-0.2,0.1-0.3-0.2-0.3c-0.2,0-0.3,0.2-0.3,0.3l-0.2,1h-0.6L11,8.4
				c0-0.2,0-0.3-0.2-0.3c-0.2,0-0.3,0.1-0.4,0.3l-0.2,1H9.7l0.4-1.8H10.7L10.7,7.7z"/>
			<path class="st1" d="M13.7,8.7c0.2,0,0.3,0,0.3,0.2c0,0.2-0.1,0.2-0.4,0.2c-0.1,0-0.3,0-0.2-0.2C13.4,8.8,13.6,8.7,13.7,8.7
				L13.7,8.7z M13.9,9.5h0.6l0.2-1.1c0.1-0.6-0.1-0.7-0.7-0.7c-0.4,0-0.8,0-1,0.6h0.6C13.7,8,13.8,8,13.9,8c0.3,0,0.2,0.1,0.2,0.3
				l-0.1,0.3h0c0-0.2-0.3-0.2-0.4-0.2c-0.4,0-0.7,0.1-0.8,0.6c-0.1,0.5,0.1,0.6,0.5,0.6c0.2,0,0.5,0,0.6-0.3h0L13.9,9.5L13.9,9.5z"
				/>
			<path class="st1" d="M15.3,9.5h-0.6l0.4-1.8h0.6L15.3,9.5L15.3,9.5z"/>
		</g>
	</g>
</g>
</svg>
