<?xml version="1.0" encoding="utf-8"?>
<!-- Generator: Adobe Illustrator 19.0.1, SVG Export Plug-In . SVG Version: 6.00 Build 0)  -->
<svg version="1.1" id="Layer_1" xmlns="http://www.w3.org/2000/svg" xmlns:xlink="http://www.w3.org/1999/xlink" x="0px" y="0px"
	 viewBox="0 0 16 16" style="enable-background:new 0 0 16 16;" xml:space="preserve">
<style type="text/css">
	.st0{fill:#388F43;}
</style>
<path class="st0" d="M8,0C3.6,0,0,3.6,0,8c0,4.4,3.6,8,8,8c4.4,0,8-3.6,8-8C16,3.6,12.4,0,8,0z M12.8,4.4C12.2,4.9,8.6,8.5,7,11.6
	c-0.3,0.6-1.2,0.3-1.4-0.1C5.3,11.2,4.4,9,4.4,8.2C4.3,7.5,5,7.3,5.4,7.3c0.7,0,0.7,0.3,0.8,0.8C6.3,8.6,6.7,9,7.1,8.4
	c0.9-1.4,3.6-3.6,4.5-4.1C12.4,3.9,13.3,3.9,12.8,4.4z"/>
</svg>
