<?xml version="1.0" encoding="utf-8"?>
<!-- Generator: Adobe Illustrator 16.0.0, SVG Export Plug-In . SVG Version: 6.00 Build 0)  -->
<!DOCTYPE svg PUBLIC "-//W3C//DTD SVG 1.1//EN" "http://www.w3.org/Graphics/SVG/1.1/DTD/svg11.dtd">
<svg version="1.1" id="Layer_2" xmlns="http://www.w3.org/2000/svg" xmlns:xlink="http://www.w3.org/1999/xlink" x="0px" y="0px"
	 width="30px" height="30px" viewBox="0 0 30 30" enable-background="new 0 0 30 30" xml:space="preserve">
<path fill="#DE6056" d="M15,0C6.716,0,0,6.716,0,15s6.716,15,15,15s15-6.716,15-15S23.284,0,15,0z M27,15
	c0,2.771-0.949,5.316-2.527,7.35L7.65,5.528C9.682,3.949,12.228,3,15,3C21.627,3,27,8.373,27,15z M3,15
	c0-2.772,0.95-5.318,2.529-7.35L22.35,24.471C20.318,26.051,17.771,27,15,27C8.373,27,3,21.627,3,15z"/>
</svg>
