<?xml version="1.0" encoding="utf-8"?>
<!-- Generator: Adobe Illustrator 16.0.0, SVG Export Plug-In . SVG Version: 6.00 Build 0)  -->
<!DOCTYPE svg PUBLIC "-//W3C//DTD SVG 1.1//EN" "http://www.w3.org/Graphics/SVG/1.1/DTD/svg11.dtd">
<svg version="1.1" id="Layer_1" xmlns="http://www.w3.org/2000/svg" xmlns:xlink="http://www.w3.org/1999/xlink" x="0px" y="0px"
	 width="16px" height="16px" viewBox="0 0 16 16" enable-background="new 0 0 16 16" xml:space="preserve">
<path fill="#E6E6E6" d="M8,11.4c-1.9,0-3.4-1.5-3.4-3.4c0-1.9,1.5-3.4,3.4-3.4c1.9,0,3.4,1.5,3.4,3.4C11.4,9.9,9.9,11.4,8,11.4
	 M15.9,6.8c-0.1-0.3-0.3-0.6-0.6-0.6L13.8,6c-0.1-0.3-0.2-0.6-0.4-0.9l0.9-1.2c0.1-0.1,0.1-0.3,0.1-0.4c0-0.2-0.1-0.3-0.2-0.5
	c-0.4-0.5-0.9-0.9-1.4-1.3c-0.2-0.2-0.6-0.2-0.9,0l-1.3,0.9c-0.3-0.1-0.6-0.2-0.9-0.3L9.6,0.7C9.5,0.4,9.3,0.1,8.9,0.1
	C8.6,0,8.3,0,8,0H7.9H7.7H7.6h0H7.6L7.2,0l-0.1,0c-0.3,0-0.6,0.3-0.6,0.6L6.2,2.2C5.8,2.3,5.5,2.4,5.2,2.5L4,1.7
	c-0.3-0.2-0.6-0.2-0.9,0C2.6,2,2.2,2.5,1.8,3C1.7,3.1,1.6,3.3,1.6,3.4c0,0.1,0,0.3,0.1,0.4l0.9,1.3C2.4,5.4,2.3,5.8,2.2,6.1L0.7,6.4
	C0.4,6.4,0.1,6.7,0.1,7C0,7.3,0,7.7,0,8c0,0.3,0,0.6,0,0.8c0,0.3,0.3,0.6,0.6,0.7l1.5,0.3c0.1,0.4,0.3,0.8,0.5,1.2l-0.9,1.2
	c-0.1,0.1-0.1,0.3-0.1,0.4c0,0.2,0.1,0.3,0.2,0.5c0.4,0.4,0.8,0.9,1.2,1.2c0.3,0.2,0.6,0.2,0.9,0l1.3-0.9c0.4,0.2,0.8,0.4,1.2,0.5
	l0.2,1.5c0,0.4,0.3,0.6,0.7,0.6L8,16c0.4,0,0.7,0,1-0.1c0.3,0,0.6-0.3,0.6-0.6l0.3-1.5c0.4-0.1,0.8-0.3,1.1-0.5l1.2,0.9
	c0.3,0.2,0.6,0.2,0.9,0c0.5-0.4,0.9-0.8,1.2-1.3c0.1-0.1,0.2-0.3,0.2-0.4c0-0.1,0-0.3-0.1-0.4l-0.9-1.3c0.2-0.3,0.3-0.7,0.4-1.1
	l1.5-0.2C15.7,9.3,16,9,16,8.7L16,8C16,7.6,16,7.2,15.9,6.8"/>
</svg>
