<?xml version="1.0" encoding="utf-8"?>
<!-- Generator: Adobe Illustrator 19.0.1, SVG Export Plug-In . SVG Version: 6.00 Build 0)  -->
<svg version="1.1" id="Layer_1" xmlns="http://www.w3.org/2000/svg" xmlns:xlink="http://www.w3.org/1999/xlink" x="0px" y="0px"
	 viewBox="0 0 16 16" style="enable-background:new 0 0 16 16;" xml:space="preserve">
<style type="text/css">
	.st0{fill:#D1D2D3;}
	.st1{fill:#676767;}
	.st2{fill:#A6A8AC;}
	.st3{fill:#808184;}
</style>
<path class="st0" d="M8.7,3.3C8.7,3.7,8.4,4,8,4l0,0C7.6,4,7.3,3.7,7.3,3.3V0.7C7.3,0.3,7.6,0,8,0l0,0c0.4,0,0.7,0.3,0.7,0.7V3.3z"
	/>
<path class="st1" d="M8.7,15.3C8.7,15.7,8.4,16,8,16l0,0c-0.4,0-0.7-0.3-0.7-0.7v-2.6C7.3,12.3,7.6,12,8,12l0,0
	c0.4,0,0.7,0.3,0.7,0.7V15.3z"/>
<path class="st2" d="M5.2,4.2c0.3,0.3,0.3,0.7,0,1l0,0c-0.3,0.3-0.7,0.3-1,0L2.3,3.3c-0.3-0.3-0.3-0.7,0-1l0,0c0.3-0.3,0.7-0.3,1,0
	L5.2,4.2z"/>
<path class="st1" d="M13.7,12.7c0.3,0.3,0.3,0.7,0,1l0,0c-0.3,0.3-0.7,0.3-1,0l-1.8-1.8c-0.3-0.3-0.3-0.7,0-1l0,0
	c0.3-0.3,0.7-0.3,1,0L13.7,12.7z"/>
<path class="st3" d="M3.3,7.3C3.7,7.3,4,7.6,4,8l0,0c0,0.4-0.3,0.7-0.7,0.7H0.7C0.3,8.7,0,8.4,0,8l0,0c0-0.4,0.3-0.7,0.7-0.7H3.3z"
	/>
<path class="st1" d="M15.3,7.3C15.7,7.3,16,7.6,16,8l0,0c0,0.4-0.3,0.7-0.7,0.7h-2.6C12.3,8.7,12,8.4,12,8l0,0
	c0-0.4,0.3-0.7,0.7-0.7H15.3z"/>
<path class="st1" d="M4.2,10.8c0.3-0.3,0.7-0.3,1,0l0,0c0.3,0.3,0.3,0.7,0,1l-1.8,1.8c-0.3,0.3-0.7,0.3-1,0l0,0
	c-0.3-0.3-0.3-0.7,0-1L4.2,10.8z"/>
<path class="st1" d="M12.7,2.3c0.3-0.3,0.7-0.3,1,0l0,0c0.3,0.3,0.3,0.7,0,1l-1.8,1.8c-0.3,0.3-0.7,0.3-1,0l0,0
	c-0.3-0.3-0.3-0.7,0-1L12.7,2.3z"/>
</svg>
