<svg xmlns="http://www.w3.org/2000/svg" width="80" height="80" viewBox="0 0 80 80"><path fill="#F1F1F2" d="M43.5 16.5c0 1.933-1.566 3.5-3.5 3.5-1.933 0-3.5-1.567-3.5-3.5v-13C36.5 1.567 38.067 0 40 0c1.934 0 3.5 1.567 3.5 3.5v13z"/><path fill="#666" d="M43.5 76.5c0 1.934-1.566 3.5-3.5 3.5-1.933 0-3.5-1.566-3.5-3.5v-13c0-1.934 1.567-3.5 3.5-3.5 1.934 0 3.5 1.566 3.5 3.5v13z"/><path fill="#D0D2D3" d="M25.857 20.908c1.367 1.367 1.368 3.583 0 4.95-1.366 1.367-3.583 1.367-4.95 0l-9.19-9.192c-1.368-1.367-1.368-3.583 0-4.95 1.366-1.367 3.58-1.367 4.948 0l9.192 9.192z"/><path fill="#666" d="M68.284 63.334c1.367 1.368 1.367 3.583 0 4.95s-3.582 1.368-4.95 0l-9.192-9.192c-1.367-1.367-1.367-3.582 0-4.95 1.367-1.366 3.582-1.366 4.95 0l9.192 9.192z"/><path fill="#A6A8AB" d="M16.5 36.5c1.933 0 3.5 1.565 3.5 3.5 0 1.933-1.567 3.5-3.5 3.5h-13C1.567 43.5 0 41.933 0 40s1.566-3.5 3.5-3.5h13z"/><path fill="#666" d="M76.5 36.5c1.934 0 3.5 1.566 3.5 3.5s-1.565 3.5-3.5 3.5h-13c-1.935 0-3.5-1.566-3.5-3.5 0-1.933 1.565-3.5 3.5-3.5h13z"/><path fill="#808184" d="M20.907 54.143c1.367-1.367 3.584-1.37 4.95-.002 1.368 1.37 1.368 3.59 0 4.96l-9.192 9.19c-1.367 1.37-3.582 1.37-4.95 0-1.366-1.36-1.366-3.58 0-4.95l9.192-9.19z"/><path fill="#666" d="M63.333 11.716c1.37-1.368 3.584-1.368 4.95 0 1.368 1.367 1.368 3.582 0 4.95l-9.192 9.192c-1.36 1.367-3.58 1.367-4.94 0-1.36-1.368-1.36-3.582 0-4.95l9.19-9.192z"/></svg>