<svg xmlns="http://www.w3.org/2000/svg" width="16" height="16" viewBox="0 0 16 16"><path fill-rule="evenodd" clip-rule="evenodd" fill="#3878BD" d="M11.32 6.53c-.1.24-.22.45-.382.638-.147.19-.317.37-.51.53-.187.15-.38.3-.548.43l-.492.36c-.138.11-.247.22-.318.33-.08.12-.14.252-.178.38-.04.14-.092.26-.153.38-.07.11-.15.2-.26.28-.11.07-.27.1-.49.1-.29 0-.51-.09-.64-.29-.14-.19-.21-.398-.21-.62 0-.27.052-.51.17-.71.11-.208.26-.398.43-.568.17-.17.36-.332.55-.483.203-.147.382-.307.554-.468.17-.16.317-.33.43-.5.12-.18.17-.38.17-.6 0-.38-.112-.67-.33-.87-.23-.197-.54-.31-.94-.31-.28 0-.5.05-.66.14-.17.09-.303.203-.403.33-.097.14-.177.28-.247.43-.06.16-.13.3-.21.43-.08.13-.18.24-.3.34-.11.094-.28.13-.49.13-.23 0-.434-.07-.6-.207-.18-.14-.26-.353-.26-.62 0-.34.08-.66.26-.96.166-.313.4-.57.68-.81.29-.23.62-.41.99-.55.37-.13.76-.2 1.16-.2.43 0 .84.047 1.24.16.4.1.76.26 1.08.48.32.22.57.5.76.84.19.35.29.76.29 1.25 0 .3-.05.557-.15.8m-3.34 6.49c-.56 0-1.02-.46-1.02-1.02s.46-1.02 1.02-1.02S9 11.44 9 12s-.46 1.02-1.02 1.02M8 0C3.583 0 0 3.58 0 8s3.582 8 8 8c4.422 0 8-3.58 8-8s-3.578-8-8-8"/></svg>