<svg xmlns="http://www.w3.org/2000/svg" width="39" height="16" viewBox="0 0 39 16"><path fill="none" stroke="#ccc" stroke-miterlimit="10" d="M21.5 0L21.5 16"/><path fill="#666" d="M8,11.4c-1.9,0-3.4-1.5-3.4-3.4c0-1.9,1.5-3.4,3.4-3.4c1.9,0,3.4,1.5,3.4,3.4C11.4,9.9,9.9,11.4,8,11.4 M15.9,6.8C15.8,6.5,15.6,6.2,15.3,6.2L13.8,6c-0.1-0.3-0.2-0.6-0.399-0.9L14.3,3.9C14.4,3.8,14.4,3.6,14.4,3.5 c0-0.2-0.101-0.3-0.2-0.5c-0.4-0.5-0.9-0.9-1.4-1.3c-0.2-0.2-0.6-0.2-0.899,0L10.6,2.6C10.3,2.5,10,2.4,9.7,2.3L9.6,0.7 C9.5,0.4,9.3,0.1,8.9,0.1C8.6,0,8.3,0,8,0H7.9H7.7H7.6l0,0l0,0H7.2H7.1C6.8,0,6.5,0.3,6.5,0.6L6.2,2.2c-0.4,0.1-0.7,0.2-1,0.3L4,1.7 c-0.3-0.2-0.6-0.2-0.9,0C2.6,2,2.2,2.5,1.8,3C1.7,3.1,1.6,3.3,1.6,3.4s0,0.3,0.1,0.4l0.9,1.3c-0.2,0.3-0.3,0.7-0.4,1L0.7,6.4 C0.4,6.4,0.1,6.7,0.1,7C0,7.3,0,7.7,0,8s0,0.6,0,0.8C0,9.1,0.3,9.4,0.6,9.5l1.5,0.3c0.1,0.4,0.3,0.8,0.5,1.2l-0.9,1.2 c-0.1,0.1-0.1,0.3-0.1,0.399c0,0.2,0.1,0.301,0.2,0.5C2.2,13.5,2.6,14,3,14.3c0.3,0.2,0.6,0.2,0.9,0L5.2,13.4 C5.6,13.6,6,13.8,6.4,13.9l0.2,1.5C6.6,15.8,6.9,16,7.3,16H8c0.4,0,0.7,0,1-0.1c0.3,0,0.6-0.301,0.6-0.601L9.9,13.8 c0.399-0.1,0.8-0.3,1.1-0.5l1.2,0.9c0.3,0.2,0.6,0.2,0.899,0c0.5-0.4,0.9-0.8,1.2-1.3c0.101-0.101,0.2-0.301,0.2-0.4s0-0.3-0.1-0.4 l-0.9-1.3c0.2-0.3,0.3-0.7,0.4-1.1l1.5-0.2C15.7,9.3,16,9,16,8.7V8C16,7.6,16,7.2,15.9,6.8"/><path fill="#666" d="M27 6L31 10 31 10 33 12 33 12 35 10 39 6 37 4 33 8 29 4z"/></svg>