<svg xmlns="http://www.w3.org/2000/svg" xmlns:xlink="http://www.w3.org/1999/xlink" width="51.375" height="51.417" viewBox="0 0 51.375 51.417"><circle stroke="#E6E6E5" stroke-width="3" stroke-miterlimit="10" cx="25.681" cy="25.682" r="24" fill="none"/><defs><path id="a" d="M55.308 22.682h-18.43l15.96-9.215-3-5.196-15.96 9.22 9.215-15.96-5.196-3-9.217 15.96V-3.94h-6v18.428l-9.213-15.96-5.196 3 9.22 15.96L1.53 8.27l-3 5.196 15.96 9.214H-3.94v6h18.425l-15.958 9.214 3 5.196 15.96-9.214-9.216 15.96 5.2 3 9.21-15.956v18.427h6v-18.43l9.22 15.96 5.2-3-9.21-15.96 15.96 9.216 3-5.196-15.96-9.215h18.43z"/></defs><clipPath id="b"><use xlink:href="#a" overflow="visible"/></clipPath><circle clip-path="url(#b)" stroke="#676868" stroke-width="3" stroke-miterlimit="10" cx="25.681" cy="25.682" r="24" fill="none"/></svg>