<svg xmlns="http://www.w3.org/2000/svg" xmlns:xlink="http://www.w3.org/1999/xlink" x="0px" y="0px"
	 width="80px" height="80px" viewBox="0 0 80 80" enable-background="new 0 0 80 80" xml:space="preserve">
<path fill="#F6854E" d="M43.5,16.5c0,1.933-1.566,3.5-3.5,3.5l0,0c-1.933,0-3.5-1.567-3.5-3.5v-13C36.5,1.567,38.067,0,40,0l0,0
	c1.934,0,3.5,1.567,3.5,3.5V16.5z"/>
<path fill="#FBC4AA" d="M43.5,76.5c0,1.934-1.566,3.5-3.5,3.5l0,0c-1.933,0-3.5-1.566-3.5-3.5v-13c0-1.934,1.567-3.5,3.5-3.5l0,0
	c1.934,0,3.5,1.566,3.5,3.5V76.5z"/>
<path fill="#F7996B" d="M25.857,20.908c1.367,1.367,1.368,3.583,0.001,4.95l0,0c-1.367,1.367-3.584,1.367-4.951,0l-9.191-9.192
	c-1.367-1.367-1.367-3.583,0-4.95l0,0c1.367-1.367,3.582-1.367,4.949,0L25.857,20.908z"/>
<path fill="#FDE3D6" d="M68.284,63.334c1.367,1.368,1.367,3.583,0,4.95l0,0c-1.367,1.367-3.582,1.368-4.95,0l-9.192-9.192
	c-1.367-1.367-1.367-3.582,0-4.949l0,0c1.367-1.367,3.582-1.367,4.949,0L68.284,63.334z"/>
<path fill="#F8A379" d="M16.499,36.5c1.934,0,3.502,1.565,3.502,3.499l0,0c0,1.934-1.568,3.501-3.502,3.5H3.5
	C1.567,43.5,0,41.934,0,40l0,0c0-1.934,1.566-3.499,3.499-3.5H16.499z"/>
<path fill="#FFFFFF" d="M76.499,36.5C78.434,36.5,80,38.066,80,40l0,0c0,1.934-1.565,3.5-3.501,3.5h-13c-1.934,0-3.5-1.566-3.5-3.5
	l0,0c0.001-1.933,1.566-3.499,3.5-3.5L76.499,36.5z"/>
<path fill="#F9B18D" d="M20.907,54.143c1.367-1.367,3.584-1.369,4.951-0.002l0,0c1.367,1.368,1.367,3.586-0.002,4.951l-9.191,9.192
	c-1.367,1.366-3.582,1.367-4.949,0l0,0c-1.367-1.367-1.367-3.581,0-4.948L20.907,54.143z"/>
<path fill="#FFFFFF" d="M63.333,11.716c1.369-1.368,3.584-1.368,4.951,0l0,0c1.367,1.367,1.367,3.582-0.001,4.95l-9.192,9.192
	c-1.367,1.367-3.582,1.367-4.949,0l0,0c-1.366-1.368-1.367-3.582,0-4.949L63.333,11.716z"/>
</svg>
