<?xml version="1.0" encoding="utf-8"?>
<!-- Generator: Adobe Illustrator 16.0.0, SVG Export Plug-In . SVG Version: 6.00 Build 0)  -->
<!DOCTYPE svg PUBLIC "-//W3C//DTD SVG 1.1//EN" "http://www.w3.org/Graphics/SVG/1.1/DTD/svg11.dtd">
<svg version="1.1" id="Layer_1" xmlns="http://www.w3.org/2000/svg" xmlns:xlink="http://www.w3.org/1999/xlink" x="0px" y="0px"
	 width="80px" height="80px" viewBox="0 0 80 80" enable-background="new 0 0 80 80" xml:space="preserve">
<image display="none" overflow="visible" width="512" height="512" xlink:href="minicons-22-512.png"  transform="matrix(0.1686 0 0 0.1686 -3.3335 -3.501)">
</image>
<g>
	<path fill="#7AAA60" d="M39.75,9C56.981,9,71,23.019,71,40.25S56.981,71.5,39.75,71.5S8.5,57.481,8.5,40.25S22.519,9,39.75,9
		 M39.75,0.5C17.797,0.5,0,18.297,0,40.25S17.797,80,39.75,80S79.5,62.203,79.5,40.25S61.703,0.5,39.75,0.5L39.75,0.5z"/>
</g>
<polyline fill="none" stroke="#7AAA60" stroke-width="8.5" stroke-linecap="round" stroke-miterlimit="10" points="57.999,29.535 
	35.144,52.229 25.633,43.004 "/>
</svg>
