<?xml version="1.0" encoding="utf-8"?>
<!-- Generator: Adobe Illustrator 19.0.1, SVG Export Plug-In . SVG Version: 6.00 Build 0)  -->
<svg version="1.1" id="Layer_1" xmlns="http://www.w3.org/2000/svg" xmlns:xlink="http://www.w3.org/1999/xlink" x="0px" y="0px"
	 viewBox="0 0 16 16" style="enable-background:new 0 0 16 16;" xml:space="preserve">
<style type="text/css">
	.st0{fill:#C87829;}
</style>
<path class="st0" d="M9,9c0,0.6-0.4,1-1,1S7,9.6,7,9V4c0-0.6,0.4-1,1-1s1,0.5,1,1V9z M8,13c-0.6,0-1-0.5-1-1c0-0.6,0.5-1,1-1
	c0.6,0,1,0.5,1,1C9,12.6,8.5,13,8,13 M8,0C3.6,0,0,3.6,0,8s3.6,8,8,8c4.4,0,8-3.6,8-8S12.4,0,8,0"/>
</svg>
